
<svg width="256" height="256" viewBox="0 0 256 256" fill="none" xmlns="http://www.w3.org/2000/svg">
  <defs>
    <linearGradient id="bg" x1="32" y1="24" x2="224" y2="232" gradientUnits="userSpaceOnUse">
      <stop stop-color="#18110D"/>
      <stop offset="1" stop-color="#2A1F18"/>
    </linearGradient>

    <linearGradient id="accent" x1="70" y1="60" x2="190" y2="196" gradientUnits="userSpaceOnUse">
      <stop stop-color="#F6D28B"/>
      <stop offset="1" stop-color="#D9A441"/>
    </linearGradient>
  </defs>

  <!-- Background -->
  <rect x="16" y="16" width="224" height="224" rx="52" fill="url(#bg)"/>

  <!-- Resume sheet -->
  <rect x="70" y="52" width="116" height="152" rx="18" fill="#FFF9F0"/>

  <!-- Header line -->
  <rect x="92" y="78" width="72" height="10" rx="5" fill="url(#accent)"/>

  <!-- Content lines -->
  <rect x="92" y="104" width="56" height="8" rx="4" fill="#CBBBA6"/>
  <rect x="92" y="124" width="72" height="8" rx="4" fill="#CBBBA6"/>
  <rect x="92" y="144" width="60" height="8" rx="4" fill="#CBBBA6"/>

  <!-- AI sparkle -->
  <path d="M182 88L186 100L198 104L186 108L182 120L178 108L166 104L178 100L182 88Z" fill="url(#accent)"/>

  <!-- ATS check -->
  <circle cx="128" cy="182" r="22" fill="url(#accent)"/>
  <path d="M118 182L125 189L139 174" stroke="#18110D" stroke-width="7" stroke-linecap="round" stroke-linejoin="round"/>
</svg>

